<svg xmlns="http://www.w3.org/2000/svg" viewBox="0 18 42.04999923706055 36.79999923706055" data-asc="1.082" width="42.04999923706055" height="36.79999923706055"><defs fill="#c45656"/><g><g><g transform="translate(0, 0)"><path d="M14.45 18.60Q16.40 18.60 17.60 18.88Q18.80 19.15 19.65 19.65Q20.45 20 21.13 20.55Q21.80 21.10 22.25 21.90Q22.70 22.70 22.70 23.70Q22.70 25.20 21.55 26.10Q20.40 27 18.85 27Q17.35 27 16.27 26.25Q15.20 25.50 15.20 23.90Q15.20 22.65 16.10 21.63Q17 20.60 18.40 20.35Q18.05 19.95 17.13 19.70Q16.20 19.45 15.10 19.45Q12.50 19.45 10.68 21.08Q8.85 22.70 8.85 26Q8.85 27.15 9.25 28.45Q9.65 29.75 10.80 31.10Q11.65 30.90 12.38 30.80Q13.10 30.70 13.60 30.70Q14.50 30.70 14.98 31.07Q15.45 31.45 15.45 32.05Q15.45 32.50 15.05 32.80Q14.65 33.10 14.05 33.10Q13.20 33.10 12.30 32.63Q11.40 32.15 10.85 31.80Q8.50 33 7.03 34.88Q5.55 36.75 5.55 39.90Q5.55 43.20 7.35 45.33Q9.15 47.45 12.43 48.52Q15.70 49.60 20.15 49.60Q22.65 49.60 25.10 49.05Q27.55 48.50 29.53 47.40Q31.50 46.30 32.70 44.67Q33.90 43.05 33.90 40.90Q33.90 40.10 33.68 38.88Q33.45 37.65 32.60 36.42Q31.75 35.20 29.80 34.40L30.15 33.95Q32.85 34.80 34.25 37.15Q35.65 39.50 35.65 42.55Q35.65 46.05 33.50 48.83Q31.35 51.60 27.48 53.20Q23.60 54.80 18.40 54.80Q14.25 54.80 10.88 53.95Q7.50 53.10 5.07 51.48Q2.65 49.85 1.32 47.55Q0 45.25 0 42.35Q0 39.55 1.17 37.58Q2.35 35.60 4.05 34.33Q5.75 33.05 7.45 32.35Q9.15 31.65 10.15 31.40Q8.60 30.75 7.32 29.88Q6.05 29 5.28 27.80Q4.50 26.60 4.50 25.10Q4.50 23.50 5.35 22.27Q6.20 21.05 7.63 20.25Q9.05 19.45 10.82 19.02Q12.60 18.60 14.45 18.60M34.10 18Q37.65 18 39.85 19.85Q42.05 21.70 42.05 25.05Q42.05 27.60 40.83 29.35Q39.60 31.10 37.33 32.20Q35.05 33.30 31.90 33.95Q31.20 34.20 30.15 34.52Q29.10 34.85 28 35.15Q26.90 35.45 25.88 35.75Q24.85 36.05 24.10 36.25Q20.20 37.10 18.10 38.17Q16 39.25 16 41.10Q16 42.35 16.82 43.25Q17.65 44.15 18.90 44.65Q20.15 45.15 21.40 45.15Q21.75 45.15 22.15 45.08Q22.55 45 22.90 44.88Q23.25 44.75 23.40 44.65Q22.15 44.25 21.53 43.38Q20.90 42.50 20.90 41.35Q20.90 39.75 22.05 38.90Q23.20 38.05 24.90 38.05Q26.70 38.05 27.73 39Q28.75 39.95 28.75 41.45Q28.75 43 27.80 44.02Q26.85 45.05 25.25 45.52Q23.65 46 21.65 46Q19.70 46 17.98 45.30Q16.25 44.60 15.23 43.17Q14.20 41.75 14.20 39.60Q14.20 36.95 15.55 35.17Q16.90 33.40 19.43 32.23Q21.95 31.05 25.40 30.40Q26.45 30.15 27.73 29.82Q29 29.50 30.35 29.15Q31.70 28.80 32.85 28.40Q36.45 27.50 38.43 26.40Q40.40 25.30 40.40 23.45Q40.40 22.10 39.58 21.08Q38.75 20.05 37.45 19.48Q36.15 18.90 34.75 18.90Q34.30 18.90 33.93 18.95Q33.55 19 33.30 19.15Q34.55 19.60 35.15 20.50Q35.75 21.40 35.75 22.30Q35.75 23.85 34.60 24.68Q33.45 25.50 31.75 25.50Q30.05 25.50 28.95 24.63Q27.85 23.75 27.85 22.20Q27.85 20.85 28.63 19.92Q29.40 19 30.80 18.50Q32.20 18 34.10 18Z" fill="#c45656"/></g></g></g></svg>